<svg xmlns="http://www.w3.org/2000/svg" class="leaflet-zoom-animated" width="1982" height="976" viewBox="-40 -564 1982 976" style="transform: translate3d(-40px, -564px, 0px);"><g><path stroke-linejoin="round" stroke-linecap="round" fill-rule="evenodd" stroke="#333" stroke-opacity="1" stroke-width="1" fill="transparent" fill-opacity="0.2" class="leaflet-clickable" d="M1061 -32L1060 -33L1063 -33L1062 -32zM1025 11L1025 9L1033 6L1032 8zM698 117L695 124L690 123L689 120L693 115zM1007 24L1009 21L1010 22L1008 24zM1180 101L1182 98L1188 98L1192 106L1189 108L1181 104zM1179 112L1181 110L1186 115L1185 118L1181 117zM892 55L892 53L888 51L893 45L886 44L886 42L893 38L893 35L894 36L898 34L901 35L901 37L897 38L895 41L896 46L894 50L896 53zM687 103L691 105L687 118L681 111L672 111L658 116L659 112L665 107L667 102L671 103L676 101L679 104zM689 102L686 97L682 96L679 93L685 89L687 92L697 90L692 101zM870 53L870 49L873 47L873 45L882 40L882 43L880 45L882 48L879 49L878 51L871 51L873 53zM1063 -44L1062 -45L1063 -43zM1256 132L1264 132L1269 134L1270 143L1268 147L1264 150L1258 151L1254 149L1255 147L1263 146L1267 141L1266 136L1255 135zM1290 -131L1290 -126L1288 -125L1284 -127L1281 -126L1271 -128L1275 -132L1279 -129L1282 -133L1285 -132L1288 -134L1288 -131zM926 29L925 25L931 25zM999 -330L1004 -330L1002 -326L1008 -324L1006 -323L1008 -322L1006 -318L1009 -317L1005 -314L1007 -311L1016 -317L1021 -317L1022 -315L1028 -316L1030 -314L1032 -316L1032 -319L1038 -317L1042 -320L1044 -324L1047 -323L1052 -327L1056 -326L1056 -324L1058 -324L1061 -318L1069 -317L1069 -314L1071 -313L1072 -309L1067 -308L1067 -306L1065 -305L1066 -303L1071 -301L1070 -298L1064 -296L1062 -293L1055 -293L1050 -286L1047 -286L1045 -285L1045 -283L1042 -283L1042 -281L1040 -280L1040 -273L1035 -266L1034 -260L1029 -258L1028 -255L1019 -254L1021 -251L1019 -250L1027 -249L1030 -247L1031 -243L1036 -244L1039 -242L1040 -235L1043 -234L1052 -241L1054 -239L1057 -239L1060 -243L1064 -244L1068 -238L1071 -242L1070 -246L1072 -247L1079 -244L1081 -246L1083 -242L1085 -244L1087 -252L1089 -252L1089 -250L1095 -253L1097 -252L1100 -256L1106 -252L1112 -254L1111 -256L1118 -258L1120 -261L1127 -259L1128 -263L1132 -265L1138 -262L1142 -255L1145 -254L1147 -247L1150 -248L1156 -246L1157 -240L1171 -242L1171 -244L1166 -248L1166 -251L1164 -252L1168 -255L1165 -256L1163 -260L1165 -263L1165 -268L1167 -269L1166 -272L1168 -271L1169 -276L1173 -274L1173 -272L1177 -273L1175 -275L1175 -279L1184 -277L1185 -275L1187 -276L1194 -269L1200 -270L1203 -273L1206 -268L1208 -268L1208 -265L1216 -267L1219 -272L1222 -273L1221 -271L1224 -269L1220 -268L1220 -266L1222 -265L1226 -257L1230 -257L1233 -250L1233 -246L1237 -247L1240 -251L1243 -249L1259 -253L1260 -250L1255 -244L1254 -240L1264 -232L1262 -230L1268 -222L1267 -220L1269 -214L1271 -213L1271 -207L1276 -203L1270 -195L1270 -192L1272 -191L1271 -188L1275 -185L1275 -179L1272 -177L1275 -174L1273 -172L1278 -171L1278 -166L1281 -161L1282 -155L1288 -150L1290 -151L1294 -149L1294 -142L1286 -139L1281 -140L1278 -136L1269 -139L1267 -138L1265 -128L1257 -117L1260 -107L1252 -107L1246 -102L1237 -99L1236 -92L1238 -88L1234 -85L1232 -79L1227 -80L1220 -78L1214 -81L1206 -78L1202 -72L1195 -68L1192 -71L1190 -71L1182 -66L1180 -67L1175 -65L1169 -60L1167 -60L1167 -66L1164 -70L1153 -73L1148 -70L1144 -62L1150 -62L1150 -60L1146 -56L1148 -54L1147 -52L1137 -56L1129 -55L1126 -59L1125 -64L1116 -64L1116 -67L1118 -68L1114 -69L1112 -68L1112 -64L1108 -67L1100 -64L1097 -60L1098 -58L1089 -50L1088 -42L1084 -41L1083 -46L1071 -45L1070 -52L1072 -62L1067 -65L1066 -63L1058 -59L1059 -56L1050 -52L1058 -52L1054 -44L1061 -38L1060 -35L1052 -31L1048 -32L1046 -40L1042 -46L1039 -47L1025 -41L1019 -43L1017 -41L1012 -40L1009 -37L1000 -38L999 -35L994 -31L991 -34L990 -41L988 -41L989 -43L984 -49L980 -59L976 -60L974 -59L978 -51L980 -40L975 -38L964 -28L967 -27L969 -31L974 -30L970 -22L968 -21L969 -19L966 -17L967 -10L962 -8L961 -5L963 -2L964 5L956 7L953 11L943 16L942 21L938 24L934 23L927 15L926 11L921 7L920 0L915 6L917 12L916 19L912 25L907 28L903 28L898 20L894 20L880 36L870 37L865 32L861 32L859 39L845 42L843 42L843 39L839 38L839 33L834 33L825 36L817 41L817 45L823 47L824 49L814 52L809 56L804 56L806 54L804 51L798 50L793 53L792 59L790 60L786 58L781 61L766 61L756 70L754 70L753 66L756 67L756 63L736 66L722 74L711 74L697 89L685 89L681 92L678 91L676 97L666 101L661 109L659 105L658 110L656 112L656 121L664 126L669 125L675 128L677 136L675 141L682 142L690 162L689 166L679 179L674 179L670 183L660 183L650 186L647 182L642 182L638 183L634 187L632 186L632 177L627 170L630 166L630 163L623 159L621 148L616 147L615 138L608 120L609 98L618 88L617 76L628 75L631 68L620 66L620 62L616 52L618 45L621 49L622 47L625 48L632 45L631 42L634 38L634 27L638 24L646 26L648 24L649 25L651 22L652 24L653 22L663 24L666 20L670 23L675 23L675 20L673 19L675 17L672 15L673 12L671 9L671 3L673 3L673 0L669 -3L671 -7L674 -4L677 -8L679 -8L685 -2L690 -7L694 -6L694 -3L697 -2L701 -5L698 -9L699 -11L702 -12L705 -17L709 -15L711 -16L707 -23L704 -24L704 -31L702 -34L708 -34L707 -37L709 -39L709 -45L712 -42L715 -45L720 -45L721 -48L736 -51L739 -56L736 -59L750 -61L754 -66L757 -67L757 -69L763 -75L765 -79L764 -83L767 -84L766 -87L770 -90L770 -93L767 -93L765 -95L764 -100L767 -102L765 -103L766 -107L764 -112L762 -113L765 -117L763 -119L766 -124L767 -133L770 -132L774 -139L775 -148L786 -149L787 -153L791 -156L787 -159L790 -169L793 -167L795 -169L797 -167L804 -166L806 -170L804 -174L805 -177L808 -176L808 -180L813 -180L816 -184L811 -196L810 -208L816 -208L818 -212L820 -211L827 -219L824 -229L820 -232L822 -235L822 -240L816 -245L816 -254L818 -257L823 -258L827 -265L837 -271L837 -278L833 -280L833 -284L836 -288L839 -304L843 -304L845 -301L849 -301L855 -305L859 -299L862 -304L863 -301L868 -299L882 -299L886 -294L889 -281L893 -280L893 -275L901 -275L904 -278L911 -277L914 -280L911 -288L914 -294L910 -302L916 -305L912 -310L901 -310L899 -319L903 -319L903 -317L906 -315L906 -318L910 -321L915 -320L920 -324L921 -327L924 -327L923 -330L927 -333L925 -333L926 -335L929 -333L933 -337L938 -335L939 -337L941 -330L945 -330L947 -326L951 -325L953 -322L962 -322L965 -320L966 -316L968 -318L974 -319L977 -322L980 -320L981 -322L982 -319L987 -319L992 -324L993 -329z"/></g><g><path stroke-linejoin="round" stroke-linecap="round" fill-rule="evenodd" stroke="#999" stroke-opacity="1" stroke-width="1" stroke-dasharray="1,6" fill="transparent" fill-opacity="0.2" class="leaflet-clickable" d="M989 -99L978 -100L963 -94L960 -90L966 -69L972 -63L978 -51L980 -40L972 -38L969 -45L961 -51L962 -53L946 -64L945 -66L948 -67L947 -69L941 -69L939 -73L940 -74L938 -76L938 -79L940 -80L935 -83L936 -91L933 -90L929 -94L932 -94L932 -100L930 -100L932 -104L929 -108L929 -113L924 -117L922 -116L923 -115L919 -114L920 -112L917 -111L917 -114L915 -116L916 -121L913 -121L911 -124L912 -130L909 -128L909 -130L914 -133L918 -133L924 -137L930 -137L932 -140L932 -144L935 -144L934 -146L938 -147L940 -149L939 -150L941 -150L944 -153L947 -159L952 -158L956 -154L963 -156L964 -153L967 -152L971 -156L969 -163L971 -167L977 -167L977 -171L981 -171L985 -176L986 -175L994 -179L1004 -179L1007 -177L1006 -176L1009 -170L1007 -165L1009 -164L1006 -161L1001 -161L1001 -159L996 -158L993 -154L987 -151L987 -149L991 -147L990 -143L992 -140L999 -135L998 -134L1002 -133L999 -132L999 -130L1002 -129L1002 -126L1004 -125L1004 -120L1002 -116L998 -120L993 -119L994 -114L992 -112L994 -111L995 -107L993 -105L995 -103L990 -101z"/></g><g><path stroke-linejoin="round" stroke-linecap="round" fill-rule="evenodd" stroke="#999" stroke-opacity="1" stroke-width="1" stroke-dasharray="1,6" fill="transparent" fill-opacity="0.2" class="leaflet-clickable" d="M1032 -243L1032 -241L1028 -239L1032 -233L1026 -228L1026 -222L1030 -221L1028 -218L1029 -217L1027 -210L1029 -208L1028 -207L1031 -205L1030 -204L1032 -200L1042 -199L1046 -196L1046 -202L1054 -210L1058 -207L1058 -203L1054 -200L1054 -198L1050 -196L1049 -197L1044 -192L1044 -189L1042 -189L1042 -187L1041 -188L1039 -186L1039 -182L1035 -174L1027 -177L1026 -176L1028 -180L1027 -181L1025 -179L1019 -181L1018 -179L1009 -179L1007 -176L1004 -179L994 -179L986 -175L983 -181L980 -181L978 -185L980 -188L982 -187L988 -192L991 -201L997 -204L994 -206L993 -210L989 -212L990 -217L985 -223L986 -224L982 -227L982 -229L979 -229L978 -227L975 -229L975 -231L967 -235L967 -237L965 -235L963 -236L960 -232L959 -234L957 -232L956 -233L955 -231L951 -231L950 -233L947 -234L939 -231L935 -236L931 -233L926 -232L923 -236L920 -232L918 -232L912 -238L908 -245L902 -245L905 -252L903 -257L906 -257L906 -261L909 -265L908 -267L914 -270L915 -272L912 -278L914 -280L911 -288L914 -294L911 -297L910 -302L916 -306L910 -311L902 -310L900 -312L901 -313L899 -315L899 -319L903 -319L903 -317L905 -316L910 -321L915 -320L915 -322L920 -324L921 -327L924 -327L926 -335L928 -335L929 -333L933 -337L938 -335L940 -337L941 -330L943 -331L946 -326L950 -326L953 -322L960 -323L960 -321L961 -322L966 -319L966 -316L970 -319L972 -318L980 -322L987 -318L989 -322L993 -325L993 -328L996 -330L998 -329L1000 -331L1003 -330L1004 -329L1002 -327L1005 -324L1008 -324L1006 -323L1008 -322L1006 -318L1009 -317L1006 -314L1007 -311L1017 -317L1021 -317L1024 -315L1030 -316L1030 -314L1030 -316L1032 -317L1031 -319L1038 -317L1043 -320L1044 -324L1049 -323L1052 -327L1058 -324L1058 -322L1061 -319L1065 -317L1067 -318L1071 -313L1072 -309L1068 -308L1067 -305L1065 -305L1067 -302L1070 -302L1071 -299L1068 -296L1065 -296L1063 -293L1055 -293L1050 -286L1045 -285L1045 -283L1042 -283L1039 -277L1040 -273L1035 -267L1034 -260L1030 -259L1028 -255L1019 -254L1021 -251L1019 -250L1026 -250L1031 -243z"/></g><g><path stroke-linejoin="round" stroke-linecap="round" fill-rule="evenodd" stroke="#999" stroke-opacity="1" stroke-width="1" stroke-dasharray="1,6" fill="transparent" fill-opacity="0.2" class="leaflet-clickable" d="M981 -58L988 -66L988 -69L991 -70L992 -72L995 -72L994 -71L1001 -68L1005 -62L1008 -64L1008 -62L1017 -58L1019 -52L1021 -53L1020 -54L1023 -59L1020 -63L1024 -68L1026 -65L1029 -67L1036 -67L1035 -65L1037 -63L1042 -63L1040 -59L1042 -56L1044 -56L1044 -53L1045 -54L1058 -52L1057 -48L1054 -45L1061 -39L1061 -37L1051 -31L1048 -31L1043 -45L1038 -47L1025 -41L1019 -43L1014 -39L1012 -40L1006 -37L1001 -38L994 -31L991 -34L990 -41L988 -41L989 -43L984 -49L981 -56z"/></g><g><path stroke-linejoin="round" stroke-linecap="round" fill-rule="evenodd" stroke="#999" stroke-opacity="1" stroke-width="1" stroke-dasharray="1,6" fill="transparent" fill-opacity="0.2" class="leaflet-clickable" d="M987 -27L985 -28L986 -29L988 -27z"/></g><g><path stroke-linejoin="round" stroke-linecap="round" fill-rule="evenodd" stroke="#999" stroke-opacity="1" stroke-width="1" stroke-dasharray="1,6" fill="transparent" fill-opacity="0.2" class="leaflet-clickable" d="M989 -38L991 -37z"/></g><g><path stroke-linejoin="round" stroke-linecap="round" fill-rule="evenodd" stroke="#999" stroke-opacity="1" stroke-width="1" stroke-dasharray="1,6" fill="transparent" fill-opacity="0.2" class="leaflet-clickable" d="M989 -37L990 -36z"/></g><g><path stroke-linejoin="round" stroke-linecap="round" fill-rule="evenodd" stroke="#999" stroke-opacity="1" stroke-width="1" stroke-dasharray="1,6" fill="transparent" fill-opacity="0.2" class="leaflet-clickable" d="M920 0L921 -6L927 -10L929 -14L930 -23L927 -26L928 -27L935 -27L942 -20L944 -13L952 -7L959 -12L957 -17L955 -18L958 -19L958 -28L966 -27L969 -31L973 -31L972 -26L968 -21L969 -19L966 -16L967 -11L964 -10L961 -5L963 -2L964 5L956 7L950 13L943 15L942 21L937 25L932 22L921 6z"/></g><g><path stroke-linejoin="round" stroke-linecap="round" fill-rule="evenodd" stroke="#999" stroke-opacity="1" stroke-width="1" stroke-dasharray="1,6" fill="transparent" fill-opacity="0.2" class="leaflet-clickable" d="M1008 2L1008 4L1006 2L1008 2z"/></g><g><path stroke-linejoin="round" stroke-linecap="round" fill-rule="evenodd" stroke="#999" stroke-opacity="1" stroke-width="1" stroke-dasharray="1,6" fill="transparent" fill-opacity="0.2" class="leaflet-clickable" d="M978 12L976 10L979 11z"/></g><g><path stroke-linejoin="round" stroke-linecap="round" fill-rule="evenodd" stroke="#999" stroke-opacity="1" stroke-width="1" stroke-dasharray="1,6" fill="transparent" fill-opacity="0.2" class="leaflet-clickable" d="M1025 11L1025 9L1033 6L1031 9L1025 10z"/></g><g><path stroke-linejoin="round" stroke-linecap="round" fill-rule="evenodd" stroke="#999" stroke-opacity="1" stroke-width="1" stroke-dasharray="1,6" fill="transparent" fill-opacity="0.2" class="leaflet-clickable" d="M988 12L988 13z"/></g><g><path stroke-linejoin="round" stroke-linecap="round" fill-rule="evenodd" stroke="#999" stroke-opacity="1" stroke-width="1" stroke-dasharray="1,6" fill="transparent" fill-opacity="0.2" class="leaflet-clickable" d="M1004 27L1006 25L1005 26z"/></g><g><path stroke-linejoin="round" stroke-linecap="round" fill-rule="evenodd" stroke="#999" stroke-opacity="1" stroke-width="1" stroke-dasharray="1,6" fill="transparent" fill-opacity="0.2" class="leaflet-clickable" d="M987 -3L985 -4L986 -5z"/></g><g><path stroke-linejoin="round" stroke-linecap="round" fill-rule="evenodd" stroke="#999" stroke-opacity="1" stroke-width="1" stroke-dasharray="1,6" fill="transparent" fill-opacity="0.2" class="leaflet-clickable" d="M1003 8L1004 9z"/></g><g><path stroke-linejoin="round" stroke-linecap="round" fill-rule="evenodd" stroke="#999" stroke-opacity="1" stroke-width="1" stroke-dasharray="1,6" fill="transparent" fill-opacity="0.2" class="leaflet-clickable" d="M1007 24L1009 22L1008 24z"/></g><g><path stroke-linejoin="round" stroke-linecap="round" fill-rule="evenodd" stroke="#999" stroke-opacity="1" stroke-width="1" stroke-dasharray="1,6" fill="transparent" fill-opacity="0.2" class="leaflet-clickable" d="M982 16L980 14L983 13L982 15z"/></g><g><path stroke-linejoin="round" stroke-linecap="round" fill-rule="evenodd" stroke="#999" stroke-opacity="1" stroke-width="1" stroke-dasharray="1,6" fill="transparent" fill-opacity="0.2" class="leaflet-clickable" d="M978 17L981 18L978 19z"/></g><g><path stroke-linejoin="round" stroke-linecap="round" fill-rule="evenodd" stroke="#999" stroke-opacity="1" stroke-width="1" stroke-dasharray="1,6" fill="transparent" fill-opacity="0.2" class="leaflet-clickable" d="M926 29L925 25L931 26L926 28z"/></g><g><path stroke-linejoin="round" stroke-linecap="round" fill-rule="evenodd" stroke="#999" stroke-opacity="1" stroke-width="1" stroke-dasharray="1,6" fill="transparent" fill-opacity="0.2" class="leaflet-clickable" d="M996 9L997 9z"/></g><g><path stroke-linejoin="round" stroke-linecap="round" fill-rule="evenodd" stroke="#999" stroke-opacity="1" stroke-width="1" stroke-dasharray="1,6" fill="transparent" fill-opacity="0.2" class="leaflet-clickable" d="M992 1L993 2L992 1z"/></g><g><path stroke-linejoin="round" stroke-linecap="round" fill-rule="evenodd" stroke="#999" stroke-opacity="1" stroke-width="1" stroke-dasharray="1,6" fill="transparent" fill-opacity="0.2" class="leaflet-clickable" d="M988 -2L988 1L988 -3z"/></g><g><path stroke-linejoin="round" stroke-linecap="round" fill-rule="evenodd" stroke="#999" stroke-opacity="1" stroke-width="1" stroke-dasharray="1,6" fill="transparent" fill-opacity="0.2" class="leaflet-clickable" d="M1021 14L1020 12L1023 11L1024 12L1022 13z"/></g><g><path stroke-linejoin="round" stroke-linecap="round" fill-rule="evenodd" stroke="#999" stroke-opacity="1" stroke-width="1" stroke-dasharray="1,6" fill="transparent" fill-opacity="0.2" class="leaflet-clickable" d="M928 17L928 18z"/></g><g><path stroke-linejoin="round" stroke-linecap="round" fill-rule="evenodd" stroke="#999" stroke-opacity="1" stroke-width="1" stroke-dasharray="1,6" fill="transparent" fill-opacity="0.2" class="leaflet-clickable" d="M1018 15L1015 14L1019 12L1019 14z"/></g><g><path stroke-linejoin="round" stroke-linecap="round" fill-rule="evenodd" stroke="#999" stroke-opacity="1" stroke-width="1" stroke-dasharray="1,6" fill="transparent" fill-opacity="0.2" class="leaflet-clickable" d="M925 20L927 20L924 23L924 21z"/></g><g><path stroke-linejoin="round" stroke-linecap="round" fill-rule="evenodd" stroke="#999" stroke-opacity="1" stroke-width="1" stroke-dasharray="1,6" fill="transparent" fill-opacity="0.2" class="leaflet-clickable" d="M973 9L974 9z"/></g><g><path stroke-linejoin="round" stroke-linecap="round" fill-rule="evenodd" stroke="#999" stroke-opacity="1" stroke-width="1" stroke-dasharray="1,6" fill="transparent" fill-opacity="0.2" class="leaflet-clickable" d="M977 17L974 18L976 16z"/></g><g><path stroke-linejoin="round" stroke-linecap="round" fill-rule="evenodd" stroke="#999" stroke-opacity="1" stroke-width="1" stroke-dasharray="1,6" fill="transparent" fill-opacity="0.2" class="leaflet-clickable" d="M995 1L993 1L994 0z"/></g><g><path stroke-linejoin="round" stroke-linecap="round" fill-rule="evenodd" stroke="#999" stroke-opacity="1" stroke-width="1" stroke-dasharray="1,6" fill="transparent" fill-opacity="0.2" class="leaflet-clickable" d="M977 -2L977 -1z"/></g><g><path stroke-linejoin="round" stroke-linecap="round" fill-rule="evenodd" stroke="#999" stroke-opacity="1" stroke-width="1" stroke-dasharray="1,6" fill="transparent" fill-opacity="0.2" class="leaflet-clickable" d="M1004 10L1005 10z"/></g><g><path stroke-linejoin="round" stroke-linecap="round" fill-rule="evenodd" stroke="#999" stroke-opacity="1" stroke-width="1" stroke-dasharray="1,6" fill="transparent" fill-opacity="0.2" class="leaflet-clickable" d="M976 2L976 3z"/></g><g><path stroke-linejoin="round" stroke-linecap="round" fill-rule="evenodd" stroke="#999" stroke-opacity="1" stroke-width="1" stroke-dasharray="1,6" fill="transparent" fill-opacity="0.2" class="leaflet-clickable" d="M1015 16L1017 16z"/></g><g><path stroke-linejoin="round" stroke-linecap="round" fill-rule="evenodd" stroke="#999" stroke-opacity="1" stroke-width="1" stroke-dasharray="1,6" fill="transparent" fill-opacity="0.2" class="leaflet-clickable" d="M1243 -129L1245 -128L1250 -130L1250 -145L1253 -146L1254 -143L1258 -145L1258 -147L1259 -146L1261 -150L1269 -146L1269 -139L1266 -136L1265 -127L1257 -117L1258 -110L1261 -109L1259 -106L1251 -107L1245 -101L1240 -101L1232 -95L1226 -95L1224 -92L1220 -90L1217 -92L1217 -95L1209 -98L1209 -107L1210 -109L1211 -108L1213 -114L1216 -117L1215 -118L1218 -121L1218 -124L1214 -130L1218 -131L1220 -136L1223 -137L1224 -133L1230 -136L1230 -132L1228 -130L1232 -130L1236 -127L1237 -124L1239 -127L1238 -132L1241 -129z"/></g><g><path stroke-linejoin="round" stroke-linecap="round" fill-rule="evenodd" stroke="#999" stroke-opacity="1" stroke-width="1" stroke-dasharray="1,6" fill="transparent" fill-opacity="0.2" class="leaflet-clickable" d="M1286 -126L1273 -127L1272 -130L1275 -132L1279 -129L1282 -133L1285 -132L1288 -134L1288 -132L1291 -130L1289 -130L1290 -127L1286 -125z"/></g><g><path stroke-linejoin="round" stroke-linecap="round" fill-rule="evenodd" stroke="#999" stroke-opacity="1" stroke-width="1" stroke-dasharray="1,6" fill="transparent" fill-opacity="0.2" class="leaflet-clickable" d="M893 -86L894 -85L897 -88L891 -106L893 -108L893 -106L894 -109L894 -106L898 -108L899 -110L896 -110L899 -113L902 -121L900 -121L896 -125L895 -122L893 -123L893 -125L895 -132L897 -132L899 -138L897 -142L900 -143L905 -141L902 -137L906 -134L906 -132L909 -130L909 -132L910 -131L909 -128L911 -130L913 -126L911 -125L912 -121L916 -121L915 -116L917 -112L920 -111L919 -114L923 -115L922 -116L926 -116L929 -113L929 -109L932 -105L930 -102L930 -100L932 -100L932 -94L930 -94L929 -92L932 -90L936 -91L935 -83L940 -80L938 -79L940 -74L939 -73L941 -69L947 -69L948 -67L945 -66L946 -64L940 -60L937 -59L936 -61L934 -61L930 -54L927 -54L923 -57L922 -56L920 -58L918 -66L911 -66L906 -72L898 -70L899 -67L895 -66L895 -59L890 -56L885 -56L885 -62L883 -61L885 -59L884 -60L882 -58L880 -59L876 -57L874 -52L871 -51L870 -54L872 -55L872 -57L869 -59L862 -57L860 -54L858 -56L859 -57L857 -63L864 -65L868 -69L870 -68L874 -70L872 -73L873 -74L875 -73L885 -76L883 -80L888 -80L888 -84L891 -84L893 -86z"/></g><g><path stroke-linejoin="round" stroke-linecap="round" fill-rule="evenodd" stroke="#999" stroke-opacity="1" stroke-width="1" stroke-dasharray="1,6" fill="transparent" fill-opacity="0.2" class="leaflet-clickable" d="M893 -86L893 -86z"/></g><g><path stroke-linejoin="round" stroke-linecap="round" fill-rule="evenodd" stroke="#999" stroke-opacity="1" stroke-width="1" stroke-dasharray="1,6" fill="transparent" fill-opacity="0.2" class="leaflet-clickable" d="M850 41L849 37L855 26L853 24L852 16L843 12L843 10L842 11L841 9L843 7L838 6L836 3L833 3L830 -1L825 1L824 0L826 -2L826 -7L822 -14L825 -13L827 -15L829 -22L832 -23L832 -21L834 -21L836 -25L839 -23L839 -27L844 -28L843 -30L845 -37L849 -38L850 -44L852 -43L852 -41L854 -41L853 -42L855 -43L856 -42L855 -43L860 -53L864 -45L868 -46L869 -47L865 -57L867 -59L872 -57L870 -51L874 -52L876 -57L882 -59L883 -58L882 -59L883 -58L883 -61L885 -62L885 -57L892 -57L895 -59L895 -66L898 -67L898 -70L902 -72L906 -72L911 -67L917 -67L920 -58L926 -55L928 -52L927 -48L936 -31L936 -26L927 -26L930 -23L929 -15L928 -11L921 -6L921 -1L915 6L917 11L916 19L912 25L907 28L902 27L898 20L894 20L881 36L870 37L867 33L861 32L859 38L850 42z"/></g><g><path stroke-linejoin="round" stroke-linecap="round" fill-rule="evenodd" stroke="#999" stroke-opacity="1" stroke-width="1" stroke-dasharray="1,6" fill="transparent" fill-opacity="0.2" class="leaflet-clickable" d="M894 49L896 53L892 55L892 53L890 53L890 50L888 50L893 45L888 45L886 44L886 42L887 40L893 38L893 35L894 36L898 34L901 37L897 38L895 48z"/></g><g><path stroke-linejoin="round" stroke-linecap="round" fill-rule="evenodd" stroke="#999" stroke-opacity="1" stroke-width="1" stroke-dasharray="1,6" fill="transparent" fill-opacity="0.2" class="leaflet-clickable" d="M878 50L873 50L871 51L873 52L869 53L870 49L873 47L872 45L881 40L882 42L880 46L882 49L879 49z"/></g><g><path stroke-linejoin="round" stroke-linecap="round" fill-rule="evenodd" stroke="#999" stroke-opacity="1" stroke-width="1" stroke-dasharray="1,6" fill="transparent" fill-opacity="0.2" class="leaflet-clickable" d="M861 45L863 43L864 45L862 47z"/></g><g><path stroke-linejoin="round" stroke-linecap="round" fill-rule="evenodd" stroke="#999" stroke-opacity="1" stroke-width="1" stroke-dasharray="1,6" fill="transparent" fill-opacity="0.2" class="leaflet-clickable" d="M883 42L884 40L884 42z"/></g><g><path stroke-linejoin="round" stroke-linecap="round" fill-rule="evenodd" stroke="#999" stroke-opacity="1" stroke-width="1" stroke-dasharray="1,6" fill="transparent" fill-opacity="0.2" class="leaflet-clickable" d="M915 27L913 25L917 24L917 27L915 27z"/></g><g><path stroke-linejoin="round" stroke-linecap="round" fill-rule="evenodd" stroke="#999" stroke-opacity="1" stroke-width="1" stroke-dasharray="1,6" fill="transparent" fill-opacity="0.2" class="leaflet-clickable" d="M900 51L904 51L900 51z"/></g><g><path stroke-linejoin="round" stroke-linecap="round" fill-rule="evenodd" stroke="#999" stroke-opacity="1" stroke-width="1" stroke-dasharray="1,6" fill="transparent" fill-opacity="0.2" class="leaflet-clickable" d="M881 52L882 51z"/></g><g><path stroke-linejoin="round" stroke-linecap="round" fill-rule="evenodd" stroke="#999" stroke-opacity="1" stroke-width="1" stroke-dasharray="1,6" fill="transparent" fill-opacity="0.2" class="leaflet-clickable" d="M875 53L874 52L876 52z"/></g><g><path stroke-linejoin="round" stroke-linecap="round" fill-rule="evenodd" stroke="#999" stroke-opacity="1" stroke-width="1" stroke-dasharray="1,6" fill="transparent" fill-opacity="0.2" class="leaflet-clickable" d="M883 51L883 50z"/></g><g><path stroke-linejoin="round" stroke-linecap="round" fill-rule="evenodd" stroke="#999" stroke-opacity="1" stroke-width="1" stroke-dasharray="1,6" fill="transparent" fill-opacity="0.2" class="leaflet-clickable" d="M896 54L894 55z"/></g><g><path stroke-linejoin="round" stroke-linecap="round" fill-rule="evenodd" stroke="#999" stroke-opacity="1" stroke-width="1" stroke-dasharray="1,6" fill="transparent" fill-opacity="0.2" class="leaflet-clickable" d="M675 23L676 26L673 27L672 25L670 30L671 32L675 32L673 34L673 40L671 40L673 43L677 44L674 45L677 53L680 53L678 54L679 56L683 56L683 59L686 61L683 67L685 67L691 75L687 81L693 84L695 82L698 82L698 88L691 90L685 89L679 92L678 91L677 96L675 98L674 97L671 100L666 101L661 109L659 106L658 107L655 116L656 121L659 124L663 126L669 125L675 128L677 133L675 141L682 141L690 163L679 179L674 179L671 182L665 184L659 183L655 186L650 186L647 182L642 182L633 187L631 185L631 174L627 171L627 169L630 166L629 161L623 159L622 149L617 147L612 129L608 121L610 104L609 99L618 88L617 76L627 75L631 68L620 66L616 49L619 45L621 49L622 47L625 48L632 45L632 39L634 38L633 37L635 30L634 27L638 26L638 24L644 26L647 26L648 24L649 25L650 22L652 22L652 24L656 22L663 24L666 20L669 23L674 23z"/></g><g><path stroke-linejoin="round" stroke-linecap="round" fill-rule="evenodd" stroke="#999" stroke-opacity="1" stroke-width="1" stroke-dasharray="1,6" fill="transparent" fill-opacity="0.2" class="leaflet-clickable" d="M686 62L688 64L690 60L696 63L698 63L698 61L702 63L701 60L704 59L704 61L706 61L704 59L706 59L706 49L709 47L712 49L712 54L714 53L714 57L717 60L716 62L718 62L721 65L720 67L722 69L722 67L726 67L728 71L724 74L709 75L698 88L698 82L693 84L687 81L687 79L690 78L691 75L685 67L683 67L686 63z"/></g><g><path stroke-linejoin="round" stroke-linecap="round" fill-rule="evenodd" stroke="#999" stroke-opacity="1" stroke-width="1" stroke-dasharray="1,6" fill="transparent" fill-opacity="0.2" class="leaflet-clickable" d="M675 17L680 18L676 22L673 19z"/></g><g><path stroke-linejoin="round" stroke-linecap="round" fill-rule="evenodd" stroke="#999" stroke-opacity="1" stroke-width="1" stroke-dasharray="1,6" fill="transparent" fill-opacity="0.2" class="leaflet-clickable" d="M674 34L675 36L674 34z"/></g><g><path stroke-linejoin="round" stroke-linecap="round" fill-rule="evenodd" stroke="#999" stroke-opacity="1" stroke-width="1" stroke-dasharray="1,6" fill="transparent" fill-opacity="0.2" class="leaflet-clickable" d="M684 103L690 104L688 118L686 118L681 111L673 111L668 114L659 116L658 114L658 112L665 107L667 102L670 103L676 101L679 104L683 104z"/></g><g><path stroke-linejoin="round" stroke-linecap="round" fill-rule="evenodd" stroke="#999" stroke-opacity="1" stroke-width="1" stroke-dasharray="1,6" fill="transparent" fill-opacity="0.2" class="leaflet-clickable" d="M685 96L684 97L681 94L679 94L685 90L687 92L697 90L692 101L689 102L686 97z"/></g><g><path stroke-linejoin="round" stroke-linecap="round" fill-rule="evenodd" stroke="#999" stroke-opacity="1" stroke-width="1" stroke-dasharray="1,6" fill="transparent" fill-opacity="0.2" class="leaflet-clickable" d="M676 142L678 138L678 142z"/></g><g><path stroke-linejoin="round" stroke-linecap="round" fill-rule="evenodd" stroke="#999" stroke-opacity="1" stroke-width="1" stroke-dasharray="1,6" fill="transparent" fill-opacity="0.2" class="leaflet-clickable" d="M694 124L691 124L689 120L693 115L698 116L695 124z"/></g><g><path stroke-linejoin="round" stroke-linecap="round" fill-rule="evenodd" stroke="#999" stroke-opacity="1" stroke-width="1" stroke-dasharray="1,6" fill="transparent" fill-opacity="0.2" class="leaflet-clickable" d="M690 176L693 170L694 171L691 176z"/></g><g><path stroke-linejoin="round" stroke-linecap="round" fill-rule="evenodd" stroke="#999" stroke-opacity="1" stroke-width="1" stroke-dasharray="1,6" fill="transparent" fill-opacity="0.2" class="leaflet-clickable" d="M678 95L680 95L678 95z"/></g><g><path stroke-linejoin="round" stroke-linecap="round" fill-rule="evenodd" stroke="#999" stroke-opacity="1" stroke-width="1" stroke-dasharray="1,6" fill="transparent" fill-opacity="0.2" class="leaflet-clickable" d="M675 100L678 100L675 101z"/></g><g><path stroke-linejoin="round" stroke-linecap="round" fill-rule="evenodd" stroke="#999" stroke-opacity="1" stroke-width="1" stroke-dasharray="1,6" fill="transparent" fill-opacity="0.2" class="leaflet-clickable" d="M705 60L704 59z"/></g><g><path stroke-linejoin="round" stroke-linecap="round" fill-rule="evenodd" stroke="#999" stroke-opacity="1" stroke-width="1" stroke-dasharray="1,6" fill="transparent" fill-opacity="0.2" class="leaflet-clickable" d="M675 17L671 9L671 3L673 3L673 0L669 -3L671 -7L674 -4L677 -8L679 -8L684 -3L683 -2L688 -3L690 -7L697 -2L701 -5L698 -9L700 -12L702 -12L705 -16L711 -15L707 -23L704 -24L704 -31L702 -33L702 -35L704 -33L708 -34L707 -36L709 -45L712 -44L712 -42L715 -45L721 -46L721 -48L727 -48L728 -51L736 -51L736 -53L740 -57L742 -57L742 -53L746 -47L748 -48L753 -45L758 -45L760 -42L757 -41L755 -37L756 -36L761 -39L762 -37L767 -38L769 -32L768 -30L773 -31L773 -36L775 -37L778 -35L782 -39L781 -40L785 -42L787 -40L787 -36L787 -38L792 -37L793 -34L791 -30L784 -24L780 -24L775 -21L772 -18L772 -14L770 -15L767 -12L763 -11L763 -7L760 -4L761 1L756 8L758 11L756 17L757 21L759 23L760 22L761 25L763 24L764 26L768 27L769 31L767 32L765 37L771 42L768 47L768 52L770 55L771 54L772 60L766 61L763 65L754 70L753 66L755 67L757 64L756 63L737 66L728 71L727 68L724 66L722 67L722 69L718 61L716 62L717 58L714 56L714 53L712 54L712 50L709 47L706 49L706 58L703 60L701 59L702 63L699 61L698 63L696 63L690 60L688 64L683 59L683 57L678 55L680 53L677 53L677 50L674 45L677 44L673 43L671 40L673 40L675 32L672 32L671 31L673 31L670 30L672 26L676 26L675 23L680 18L676 17z"/></g><g><path stroke-linejoin="round" stroke-linecap="round" fill-rule="evenodd" stroke="#999" stroke-opacity="1" stroke-width="1" stroke-dasharray="1,6" fill="transparent" fill-opacity="0.2" class="leaflet-clickable" d="M675 33L673 38L673 34z"/></g><g><path stroke-linejoin="round" stroke-linecap="round" fill-rule="evenodd" stroke="#999" stroke-opacity="1" stroke-width="1" stroke-dasharray="1,6" fill="transparent" fill-opacity="0.2" class="leaflet-clickable" d="M684 64L686 64z"/></g><g><path stroke-linejoin="round" stroke-linecap="round" fill-rule="evenodd" stroke="#999" stroke-opacity="1" stroke-width="1" stroke-dasharray="1,6" fill="transparent" fill-opacity="0.2" class="leaflet-clickable" d="M704 60L706 61L704 61z"/></g><g><path stroke-linejoin="round" stroke-linecap="round" fill-rule="evenodd" stroke="#999" stroke-opacity="1" stroke-width="1" stroke-dasharray="1,6" fill="transparent" fill-opacity="0.2" class="leaflet-clickable" d="M747 74L748 73z"/></g><g><path stroke-linejoin="round" stroke-linecap="round" fill-rule="evenodd" stroke="#999" stroke-opacity="1" stroke-width="1" stroke-dasharray="1,6" fill="transparent" fill-opacity="0.2" class="leaflet-clickable" d="M683 67L684 66z"/></g><g><path stroke-linejoin="round" stroke-linecap="round" fill-rule="evenodd" stroke="#999" stroke-opacity="1" stroke-width="1" stroke-dasharray="1,6" fill="transparent" fill-opacity="0.2" class="leaflet-clickable" d="M765 -117L763 -119L766 -125L766 -130L767 -133L770 -132L770 -134L773 -137L775 -142L775 -148L781 -150L786 -149L787 -153L791 -156L787 -158L790 -169L794 -167L794 -169L796 -169L798 -167L803 -166L806 -169L804 -174L805 -176L809 -177L808 -179L813 -180L816 -184L810 -196L810 -208L814 -207L814 -209L818 -209L822 -204L824 -204L826 -205L825 -207L828 -211L831 -208L833 -208L833 -206L836 -204L841 -208L841 -210L845 -211L845 -217L848 -218L848 -224L856 -220L858 -216L862 -214L863 -206L860 -199L866 -197L869 -187L868 -183L873 -183L880 -179L882 -180L885 -177L883 -169L881 -167L886 -166L885 -162L888 -161L888 -158L886 -157L888 -153L893 -153L890 -146L892 -146L894 -141L899 -138L897 -132L895 -132L893 -123L895 -122L896 -125L902 -121L899 -113L896 -110L899 -110L898 -108L896 -108L895 -106L894 -109L894 -107L893 -106L893 -108L891 -106L894 -101L897 -88L894 -85L889 -85L888 -80L883 -80L885 -76L883 -77L876 -73L873 -74L872 -73L874 -71L872 -69L868 -69L864 -65L862 -66L857 -63L856 -65L851 -65L851 -69L848 -74L849 -77L845 -77L845 -80L848 -81L847 -83L849 -87L847 -90L851 -95L850 -98L847 -99L839 -93L834 -95L826 -93L821 -95L819 -99L814 -98L810 -100L801 -99L793 -102L792 -101L789 -104L783 -105L779 -108L783 -111L779 -118L777 -115L773 -113L770 -115L771 -116L765 -118z"/></g><g><path stroke-linejoin="round" stroke-linecap="round" fill-rule="evenodd" stroke="#999" stroke-opacity="1" stroke-width="1" stroke-dasharray="1,6" fill="transparent" fill-opacity="0.2" class="leaflet-clickable" d="M1050 -53L1044 -53L1044 -55L1040 -59L1042 -63L1037 -63L1035 -65L1036 -67L1030 -67L1027 -65L1025 -66L1025 -75L1026 -74L1027 -76L1023 -79L1024 -83L1023 -85L1020 -86L1019 -84L1016 -85L1016 -89L1017 -88L1010 -96L1004 -94L1001 -97L991 -97L989 -99L991 -102L995 -103L993 -104L993 -119L997 -120L1000 -119L1001 -116L1003 -116L1002 -119L1004 -120L1002 -124L1004 -125L999 -130L999 -132L1002 -133L998 -133L997 -134L999 -135L995 -136L990 -143L991 -147L989 -147L987 -151L989 -151L1001 -161L1005 -163L1004 -162L1006 -161L1007 -163L1009 -163L1007 -165L1009 -170L1007 -176L1009 -179L1014 -178L1017 -179L1018 -181L1025 -179L1027 -181L1028 -180L1025 -176L1027 -177L1035 -174L1036 -172L1033 -169L1035 -164L1034 -163L1037 -158L1038 -160L1040 -156L1042 -157L1042 -155L1044 -154L1047 -156L1050 -154L1056 -142L1060 -139L1060 -141L1061 -140L1063 -142L1064 -139L1067 -139L1067 -133L1062 -127L1063 -125L1063 -127L1068 -126L1067 -122L1069 -122L1073 -117L1073 -114L1076 -110L1075 -107L1079 -103L1081 -102L1084 -110L1087 -113L1087 -120L1089 -121L1093 -115L1095 -118L1099 -118L1106 -123L1109 -122L1111 -124L1119 -124L1121 -121L1122 -122L1122 -118L1125 -118L1130 -115L1131 -111L1133 -110L1124 -102L1121 -102L1121 -96L1118 -95L1119 -94L1115 -91L1112 -91L1108 -86L1102 -87L1099 -83L1087 -77L1089 -74L1088 -71L1090 -70L1089 -67L1094 -63L1095 -64L1094 -62L1097 -57L1089 -50L1087 -41L1084 -41L1083 -46L1072 -45L1070 -52L1070 -58L1072 -62L1068 -65L1058 -60L1059 -56L1054 -55L1052 -53z"/></g><g><path stroke-linejoin="round" stroke-linecap="round" fill-rule="evenodd" stroke="#999" stroke-opacity="1" stroke-width="1" stroke-dasharray="1,6" fill="transparent" fill-opacity="0.2" class="leaflet-clickable" d="M1063 -44L1062 -45L1064 -43z"/></g><g><path stroke-linejoin="round" stroke-linecap="round" fill-rule="evenodd" stroke="#999" stroke-opacity="1" stroke-width="1" stroke-dasharray="1,6" fill="transparent" fill-opacity="0.2" class="leaflet-clickable" d="M1061 -32L1061 -34L1063 -33L1062 -32z"/></g><g><path stroke-linejoin="round" stroke-linecap="round" fill-rule="evenodd" stroke="#999" stroke-opacity="1" stroke-width="1" stroke-dasharray="1,6" fill="transparent" fill-opacity="0.2" class="leaflet-clickable" d="M1059 -54L1059 -53z"/></g><g><path stroke-linejoin="round" stroke-linecap="round" fill-rule="evenodd" stroke="#999" stroke-opacity="1" stroke-width="1" stroke-dasharray="1,6" fill="transparent" fill-opacity="0.2" class="leaflet-clickable" d="M1080 -38L1080 -37z"/></g><g><path stroke-linejoin="round" stroke-linecap="round" fill-rule="evenodd" stroke="#999" stroke-opacity="1" stroke-width="1" stroke-dasharray="1,6" fill="transparent" fill-opacity="0.2" class="leaflet-clickable" d="M1063 -54L1063 -53z"/></g><g><path stroke-linejoin="round" stroke-linecap="round" fill-rule="evenodd" stroke="#999" stroke-opacity="1" stroke-width="1" stroke-dasharray="1,6" fill="transparent" fill-opacity="0.2" class="leaflet-clickable" d="M1070 -44L1069 -45z"/></g><g><path stroke-linejoin="round" stroke-linecap="round" fill-rule="evenodd" stroke="#999" stroke-opacity="1" stroke-width="1" stroke-dasharray="1,6" fill="transparent" fill-opacity="0.2" class="leaflet-clickable" d="M1062 -30L1063 -30z"/></g><g><path stroke-linejoin="round" stroke-linecap="round" fill-rule="evenodd" stroke="#999" stroke-opacity="1" stroke-width="1" stroke-dasharray="1,6" fill="transparent" fill-opacity="0.2" class="leaflet-clickable" d="M1271 -208L1269 -209L1265 -202L1263 -204L1259 -202L1255 -198L1255 -193L1252 -191L1250 -192L1250 -187L1245 -184L1244 -185L1244 -182L1241 -182L1243 -180L1241 -180L1241 -176L1236 -176L1231 -171L1233 -170L1231 -161L1228 -161L1225 -164L1220 -159L1216 -163L1210 -161L1202 -153L1203 -150L1201 -147L1194 -148L1187 -151L1186 -153L1184 -153L1179 -148L1176 -148L1171 -152L1167 -147L1168 -141L1166 -137L1161 -137L1158 -139L1158 -141L1153 -139L1151 -133L1142 -128L1141 -125L1138 -123L1136 -124L1136 -128L1134 -129L1135 -130L1133 -134L1135 -136L1134 -139L1136 -141L1134 -142L1136 -156L1132 -156L1132 -158L1129 -160L1131 -162L1130 -163L1126 -161L1123 -162L1127 -165L1126 -166L1128 -166L1126 -167L1127 -170L1129 -171L1128 -172L1133 -181L1136 -182L1136 -187L1133 -191L1134 -196L1138 -200L1138 -198L1140 -198L1143 -195L1140 -204L1144 -202L1144 -205L1147 -206L1148 -211L1145 -219L1145 -224L1148 -226L1147 -229L1149 -231L1147 -231L1146 -233L1145 -232L1145 -234L1139 -235L1139 -242L1140 -241L1139 -242L1145 -250L1147 -247L1154 -247L1157 -244L1157 -240L1160 -239L1166 -242L1171 -242L1171 -244L1166 -249L1166 -252L1164 -252L1168 -255L1165 -256L1165 -258L1163 -259L1167 -271L1166 -272L1168 -272L1169 -276L1172 -275L1173 -272L1177 -273L1175 -275L1176 -279L1183 -277L1184 -275L1187 -276L1194 -269L1200 -270L1202 -273L1206 -270L1206 -268L1208 -268L1207 -265L1212 -265L1218 -270L1217 -271L1222 -273L1221 -271L1223 -271L1224 -269L1220 -268L1220 -266L1221 -264L1222 -265L1226 -257L1230 -257L1233 -250L1232 -247L1234 -246L1238 -247L1240 -251L1242 -249L1250 -252L1254 -251L1256 -253L1259 -253L1260 -251L1255 -244L1255 -240L1258 -235L1261 -235L1264 -232L1262 -230L1265 -224L1266 -225L1268 -222L1267 -221L1269 -214L1271 -214L1271 -209z"/></g><g><path stroke-linejoin="round" stroke-linecap="round" fill-rule="evenodd" stroke="#999" stroke-opacity="1" stroke-width="1" stroke-dasharray="1,6" fill="transparent" fill-opacity="0.2" class="leaflet-clickable" d="M1097 -57L1094 -62L1095 -64L1094 -63L1089 -67L1090 -70L1088 -70L1089 -73L1087 -77L1099 -83L1100 -86L1105 -87L1108 -85L1112 -91L1113 -90L1117 -92L1119 -94L1118 -95L1121 -96L1120 -102L1125 -103L1132 -110L1133 -109L1133 -114L1135 -114L1136 -117L1140 -118L1137 -119L1138 -123L1141 -124L1143 -129L1146 -129L1150 -133L1157 -126L1156 -121L1165 -124L1169 -119L1167 -117L1167 -114L1170 -113L1164 -110L1164 -107L1163 -105L1162 -107L1161 -104L1166 -102L1172 -96L1176 -99L1178 -97L1182 -91L1179 -88L1181 -88L1180 -82L1183 -83L1184 -79L1188 -80L1196 -75L1201 -75L1202 -79L1206 -79L1202 -72L1197 -69L1195 -68L1192 -71L1185 -69L1182 -66L1180 -67L1175 -65L1170 -60L1167 -61L1167 -65L1163 -70L1154 -73L1149 -71L1144 -63L1145 -61L1149 -62L1150 -60L1146 -56L1148 -54L1147 -52L1137 -56L1129 -55L1124 -65L1115 -65L1118 -68L1117 -69L1113 -69L1111 -66L1112 -64L1110 -64L1109 -67L1100 -64L1097 -60L1098 -58z"/></g><g><path stroke-linejoin="round" stroke-linecap="round" fill-rule="evenodd" stroke="#999" stroke-opacity="1" stroke-width="1" stroke-dasharray="1,6" fill="transparent" fill-opacity="0.2" class="leaflet-clickable" d="M1104 -64L1105 -64z"/></g><g><path stroke-linejoin="round" stroke-linecap="round" fill-rule="evenodd" stroke="#999" stroke-opacity="1" stroke-width="1" stroke-dasharray="1,6" fill="transparent" fill-opacity="0.2" class="leaflet-clickable" d="M1111 -60L1112 -60z"/></g><g><path stroke-linejoin="round" stroke-linecap="round" fill-rule="evenodd" stroke="#999" stroke-opacity="1" stroke-width="1" stroke-dasharray="1,6" fill="transparent" fill-opacity="0.2" class="leaflet-clickable" d="M1032 -243L1037 -244L1041 -237L1040 -235L1041 -236L1043 -234L1052 -241L1057 -239L1060 -243L1062 -242L1064 -244L1066 -239L1068 -238L1071 -242L1070 -245L1072 -247L1075 -247L1079 -244L1081 -246L1082 -242L1084 -242L1087 -252L1089 -252L1089 -250L1093 -253L1097 -252L1100 -256L1104 -252L1106 -252L1110 -255L1112 -254L1111 -256L1117 -258L1120 -261L1127 -259L1128 -263L1132 -265L1145 -254L1145 -250L1142 -248L1141 -243L1139 -242L1139 -235L1145 -234L1145 -232L1146 -233L1149 -231L1147 -229L1148 -226L1145 -224L1145 -219L1148 -211L1147 -206L1145 -206L1144 -203L1140 -204L1143 -196L1141 -195L1140 -198L1138 -198L1138 -200L1137 -198L1135 -198L1133 -192L1135 -189L1136 -182L1132 -180L1128 -172L1129 -171L1126 -167L1128 -166L1126 -166L1127 -165L1123 -162L1126 -161L1130 -163L1131 -162L1129 -160L1133 -155L1136 -155L1134 -149L1134 -142L1136 -141L1134 -139L1135 -136L1132 -134L1135 -130L1134 -129L1136 -128L1137 -121L1140 -118L1133 -114L1133 -111L1131 -111L1131 -115L1125 -118L1123 -117L1122 -122L1121 -121L1119 -124L1111 -124L1109 -122L1106 -123L1100 -118L1095 -119L1094 -115L1089 -121L1087 -113L1082 -107L1083 -105L1081 -102L1075 -107L1076 -110L1073 -114L1074 -117L1067 -122L1068 -126L1064 -127L1063 -125L1061 -127L1067 -132L1067 -138L1063 -142L1061 -140L1060 -141L1060 -139L1055 -143L1054 -148L1050 -154L1047 -156L1044 -154L1042 -155L1042 -157L1040 -156L1039 -159L1038 -160L1037 -158L1034 -163L1035 -166L1033 -169L1039 -181L1039 -187L1042 -187L1042 -189L1044 -189L1043 -192L1058 -202L1058 -207L1054 -210L1048 -205L1046 -202L1046 -196L1043 -199L1042 -198L1036 -200L1034 -198L1032 -200L1030 -203L1031 -205L1028 -207L1029 -208L1027 -210L1029 -216L1028 -218L1030 -220L1029 -222L1026 -222L1026 -228L1031 -233L1028 -239L1032 -241z"/></g><g><path stroke-linejoin="round" stroke-linecap="round" fill-rule="evenodd" stroke="#999" stroke-opacity="1" stroke-width="1" stroke-dasharray="1,6" fill="transparent" fill-opacity="0.2" class="leaflet-clickable" d="M837 -25L834 -21L832 -21L832 -23L829 -22L827 -19L827 -15L825 -13L823 -14L822 -12L826 -8L825 0L830 -1L838 6L843 7L841 9L842 11L843 10L843 12L851 16L853 24L855 26L851 32L852 35L850 37L850 41L843 42L838 32L827 35L817 41L817 45L824 47L824 49L817 52L816 51L810 56L804 55L806 53L800 50L794 53L790 60L772 60L768 48L771 42L770 40L765 38L765 35L769 31L768 27L763 24L761 25L760 22L759 23L757 21L756 17L758 11L758 9L756 8L761 1L760 -4L763 -7L763 -11L770 -15L772 -14L773 -20L780 -24L784 -24L788 -27L798 -44L805 -50L804 -51L806 -55L809 -52L810 -53L810 -50L805 -46L812 -44L818 -50L821 -44L819 -43L821 -36L829 -29L836 -27z"/></g><g><path stroke-linejoin="round" stroke-linecap="round" fill-rule="evenodd" stroke="#999" stroke-opacity="1" stroke-width="1" stroke-dasharray="1,6" fill="transparent" fill-opacity="0.2" class="leaflet-clickable" d="M838 57L840 57L838 57z"/></g><g><path stroke-linejoin="round" stroke-linecap="round" fill-rule="evenodd" stroke="#999" stroke-opacity="1" stroke-width="1" stroke-dasharray="1,6" fill="transparent" fill-opacity="0.2" class="leaflet-clickable" d="M834 51L835 51z"/></g><g><path stroke-linejoin="round" stroke-linecap="round" fill-rule="evenodd" stroke="#999" stroke-opacity="1" stroke-width="1" stroke-dasharray="1,6" fill="transparent" fill-opacity="0.2" class="leaflet-clickable" d="M832 48L833 48z"/></g><g><path stroke-linejoin="round" stroke-linecap="round" fill-rule="evenodd" stroke="#999" stroke-opacity="1" stroke-width="1" fill="transparent" fill-opacity="0.2" class="leaflet-clickable" d="M912 -278L915 -272L908 -267L909 -265L907 -259L906 -257L903 -257L905 -252L903 -250L902 -245L908 -245L912 -238L918 -232L920 -232L923 -236L926 -233L930 -233L934 -236L939 -231L947 -235L950 -234L951 -231L955 -231L956 -233L957 -232L959 -234L960 -232L962 -236L966 -237L968 -234L971 -234L972 -232L975 -231L977 -227L978 -229L981 -229L983 -226L986 -225L985 -223L990 -217L990 -211L992 -211L994 -209L994 -206L997 -204L991 -201L992 -199L990 -199L989 -193L982 -187L981 -188L979 -185L979 -183L983 -179L985 -179L985 -176L982 -171L977 -172L977 -167L971 -167L969 -163L971 -156L967 -152L964 -153L963 -156L960 -154L956 -154L952 -158L947 -159L944 -153L941 -150L939 -150L939 -147L931 -143L932 -141L930 -138L909 -131L902 -137L905 -141L901 -143L895 -140L892 -146L890 -146L893 -153L888 -153L887 -157L886 -156L889 -161L886 -161L886 -165L881 -167L883 -169L885 -176L882 -180L880 -179L873 -183L868 -183L869 -187L866 -197L860 -199L863 -206L862 -213L856 -220L848 -224L848 -218L845 -218L845 -211L841 -210L841 -208L836 -204L829 -211L825 -207L825 -204L822 -204L818 -209L816 -209L819 -212L820 -211L825 -217L827 -224L825 -225L824 -229L821 -230L820 -232L822 -239L815 -248L817 -250L816 -253L818 -257L821 -259L823 -258L826 -264L834 -270L835 -269L837 -272L837 -278L832 -282L836 -288L835 -291L838 -296L837 -298L840 -304L843 -304L845 -303L845 -301L848 -301L855 -305L858 -300L862 -304L863 -301L868 -299L882 -299L882 -297L887 -293L889 -281L893 -279L893 -275L901 -275L904 -278L911 -277z" stroke-dasharray="1,6"/></g><g><path stroke-linejoin="round" stroke-linecap="round" fill-rule="evenodd" stroke="#999" stroke-opacity="1" stroke-width="1" stroke-dasharray="1,6" fill="transparent" fill-opacity="0.2" class="leaflet-clickable" d="M989 -99L991 -97L1000 -97L1004 -94L1010 -96L1017 -89L1015 -86L1016 -85L1019 -84L1020 -86L1024 -84L1023 -79L1027 -76L1025 -74L1025 -68L1020 -64L1023 -60L1020 -54L1021 -53L1019 -52L1017 -58L1015 -58L1012 -61L1010 -60L1008 -64L1005 -62L1003 -66L998 -70L995 -69L995 -72L992 -72L992 -70L988 -69L989 -66L985 -64L981 -58L979 -60L974 -59L966 -69L960 -87L962 -94L971 -96L972 -98L973 -97L978 -100L989 -98z"/></g><g><path stroke-linejoin="round" stroke-linecap="round" fill-rule="evenodd" stroke="#999" stroke-opacity="1" stroke-width="1" stroke-dasharray="1,6" fill="transparent" fill-opacity="0.2" class="leaflet-clickable" d="M936 -26L936 -31L927 -48L927 -54L930 -54L934 -61L936 -61L936 -59L946 -64L962 -53L961 -52L964 -47L969 -45L972 -38L976 -38L970 -34L965 -28L959 -28L957 -25L958 -19L955 -18L959 -13L952 -7L944 -13L942 -20L937 -25z"/></g><g><path stroke-linejoin="round" stroke-linecap="round" fill-rule="evenodd" stroke="#999" stroke-opacity="1" stroke-width="1" stroke-dasharray="1,6" fill="transparent" fill-opacity="0.2" class="leaflet-clickable" d="M1256 132L1266 132L1269 134L1271 142L1266 149L1261 151L1254 149L1255 147L1258 148L1263 146L1267 141L1266 136L1259 136L1256 134z"/></g><g><path stroke-linejoin="round" stroke-linecap="round" fill-rule="evenodd" stroke="#999" stroke-opacity="1" stroke-width="1" stroke-dasharray="1,6" fill="transparent" fill-opacity="0.2" class="leaflet-clickable" d="M1253 140L1251 139L1253 139z"/></g><g><path stroke-linejoin="round" stroke-linecap="round" fill-rule="evenodd" stroke="#999" stroke-opacity="1" stroke-width="1" stroke-dasharray="1,6" fill="transparent" fill-opacity="0.2" class="leaflet-clickable" d="M1180 101L1182 98L1188 98L1190 99L1192 106L1191 108L1187 108L1180 102z"/></g><g><path stroke-linejoin="round" stroke-linecap="round" fill-rule="evenodd" stroke="#999" stroke-opacity="1" stroke-width="1" stroke-dasharray="1,6" fill="transparent" fill-opacity="0.2" class="leaflet-clickable" d="M1179 112L1181 110L1186 115L1185 118L1181 117L1179 114z"/></g><g><path stroke-linejoin="round" stroke-linecap="round" fill-rule="evenodd" stroke="#999" stroke-opacity="1" stroke-width="1" stroke-dasharray="1,6" fill="transparent" fill-opacity="0.2" class="leaflet-clickable" d="M1269 -139L1269 -146L1261 -150L1261 -148L1259 -146L1258 -147L1258 -145L1255 -143L1253 -146L1250 -145L1251 -133L1248 -129L1245 -128L1242 -132L1235 -136L1235 -138L1238 -140L1237 -143L1233 -145L1234 -149L1219 -157L1219 -159L1225 -164L1228 -161L1232 -162L1233 -170L1231 -171L1233 -174L1241 -176L1241 -182L1244 -182L1244 -184L1249 -185L1248 -186L1250 -187L1250 -192L1252 -191L1256 -195L1255 -198L1259 -202L1263 -204L1265 -202L1266 -205L1268 -205L1267 -207L1269 -209L1276 -204L1276 -202L1271 -198L1270 -195L1270 -192L1273 -187L1272 -186L1275 -185L1275 -179L1272 -177L1275 -174L1273 -172L1276 -172L1279 -169L1278 -166L1281 -161L1281 -155L1287 -152L1288 -150L1289 -151L1294 -149L1294 -142L1286 -139L1281 -140L1278 -136L1273 -136L1270 -138z"/></g><g><path stroke-linejoin="round" stroke-linecap="round" fill-rule="evenodd" stroke="#999" stroke-opacity="1" stroke-width="1" stroke-dasharray="1,6" fill="transparent" fill-opacity="0.2" class="leaflet-clickable" d="M1150 -133L1153 -139L1157 -141L1161 -137L1166 -137L1166 -140L1168 -141L1167 -147L1171 -152L1174 -149L1179 -148L1184 -153L1186 -153L1188 -150L1201 -147L1203 -150L1202 -153L1206 -158L1207 -157L1215 -163L1219 -159L1219 -157L1225 -155L1226 -153L1234 -149L1233 -145L1235 -143L1236 -144L1238 -140L1236 -140L1235 -136L1243 -131L1243 -129L1241 -129L1238 -132L1239 -128L1237 -125L1232 -130L1228 -129L1230 -132L1230 -136L1225 -133L1223 -134L1223 -137L1220 -136L1218 -131L1214 -130L1217 -127L1218 -121L1217 -119L1215 -119L1216 -117L1213 -114L1211 -108L1209 -108L1210 -106L1208 -100L1209 -98L1217 -95L1217 -92L1220 -91L1224 -92L1226 -95L1236 -97L1236 -92L1238 -88L1234 -85L1232 -79L1227 -80L1220 -78L1214 -81L1206 -78L1202 -79L1200 -75L1193 -76L1193 -78L1186 -81L1184 -79L1183 -83L1182 -81L1180 -82L1182 -88L1179 -88L1183 -91L1180 -93L1178 -96L1179 -97L1177 -99L1173 -98L1172 -96L1167 -99L1166 -102L1161 -104L1161 -106L1162 -107L1163 -105L1164 -107L1163 -110L1170 -112L1167 -114L1167 -117L1169 -119L1165 -124L1156 -121L1157 -126L1150 -133z"/></g><g><path stroke-linejoin="round" stroke-linecap="round" fill-rule="evenodd" stroke="#999" stroke-opacity="1" stroke-width="1" stroke-dasharray="1,6" fill="transparent" fill-opacity="0.2" class="leaflet-clickable" d="M837 -25L836 -27L829 -29L820 -37L819 -43L821 -43L821 -46L818 -49L816 -49L812 -44L807 -45L806 -46L808 -48L809 -47L808 -49L810 -53L809 -52L807 -55L804 -52L805 -50L798 -44L793 -35L787 -38L787 -36L787 -40L785 -42L782 -41L782 -39L778 -35L775 -37L773 -36L773 -31L768 -30L768 -38L762 -37L761 -39L756 -36L755 -37L757 -41L760 -42L756 -46L750 -45L748 -48L747 -47L743 -50L742 -56L736 -58L736 -60L749 -60L752 -62L752 -65L757 -67L765 -79L764 -83L767 -84L766 -87L770 -90L770 -93L765 -94L765 -100L767 -102L765 -105L766 -107L764 -112L762 -112L765 -118L771 -116L770 -115L772 -115L773 -113L777 -114L779 -117L778 -118L783 -113L783 -111L779 -108L783 -105L789 -104L792 -101L793 -102L801 -99L818 -99L821 -95L825 -93L831 -95L839 -93L847 -99L851 -96L847 -90L849 -87L847 -84L848 -81L846 -81L845 -78L849 -77L848 -74L852 -67L850 -65L856 -66L859 -54L864 -58L869 -47L864 -45L861 -49L861 -53L859 -52L859 -49L855 -43L856 -42L853 -43L854 -42L852 -41L851 -44L849 -43L849 -38L845 -37L843 -30L844 -28L839 -27L839 -23L837 -25z"/></g></svg>